<?xml version="1.0" standalone="no"?>
<!DOCTYPE svg PUBLIC "-//W3C//DTD SVG 20010904//EN"
 "http://www.w3.org/TR/2001/REC-SVG-20010904/DTD/svg10.dtd">
<svg version="1.0" xmlns="http://www.w3.org/2000/svg"
 width="504.000000pt" height="504.000000pt" viewBox="0 0 504.000000 504.000000"
 preserveAspectRatio="xMidYMid meet">
<metadata>
Created by potrace 1.11, written by Peter Selinger 2001-2013
</metadata>
<g transform="translate(0.000000,504.000000) scale(0.100000,-0.100000)"
fill="#000000" stroke="none">
<path d="M0 2520 l0 -2520 2520 0 2520 0 0 2520 0 2520 -2520 0 -2520 0 0
-2520z m2850 1575 c412 -56 739 -190 976 -400 199 -175 334 -436 369 -712 l7
-53 -306 0 -307 0 -33 74 c-95 207 -263 362 -491 451 -311 122 -787 136 -1145
34 -428 -122 -691 -390 -764 -779 -20 -105 -21 -311 -1 -423 73 -418 386 -708
870 -806 152 -31 263 -41 454 -41 192 0 332 16 480 56 294 79 520 245 651 477
l33 59 -407 -4 -406 -3 0 203 0 202 739 0 738 0 6 -327 c4 -181 8 -512 9 -738
l2 -410 -283 -3 -284 -2 7 132 c7 136 35 415 61 593 7 55 12 101 10 103 -2 2
-9 -14 -15 -35 -7 -21 -35 -81 -62 -135 -166 -327 -459 -552 -846 -654 -187
-48 -280 -58 -542 -58 -258 -1 -350 8 -558 50 -536 108 -950 393 -1157 796
-171 332 -218 732 -135 1135 110 534 499 938 1080 1121 176 56 417 101 620
116 116 8 518 -4 630 -19z"/>
</g>
</svg>
