<?xml version="1.0" encoding="utf-8"?>
<!-- Generator: Adobe Illustrator 17.1.0, SVG Export Plug-In . SVG Version: 6.00 Build 0)  -->
<!DOCTYPE svg PUBLIC "-//W3C//DTD SVG 1.1//EN" "http://www.w3.org/Graphics/SVG/1.1/DTD/svg11.dtd">
<svg version="1.1" id="Layer_1" xmlns="http://www.w3.org/2000/svg" xmlns:xlink="http://www.w3.org/1999/xlink" x="0px" y="0px"
	 viewBox="672 180 2656 2640" enable-background="new 672 180 2656 2640" xml:space="preserve">
<path fill="#FFFFFF" d="M2000,2779.2c-705.6,0-1280.6-573.6-1280.6-1280.6S1294.4,219.4,2000,219.4S3280.6,793.1,3280.6,1500
	S2705.6,2779.2,2000,2779.2z M3079.2,1675c-37.5-12.5-338.9-101.4-680.6-47.2c143.1,393.1,201.4,712.5,212.5,779.2
	C2856.9,2241.7,3030.6,1979.2,3079.2,1675z M2427.8,2506.9c-16.7-95.8-79.2-430.6-233.3-829.2c-2.8,1.4-4.2,1.4-6.9,2.8
	c-616.7,215.3-837.5,643.1-858.3,683.3c184.7,144.4,418.1,230.6,670.8,230.6C2151.4,2594.4,2295.8,2562.5,2427.8,2506.9z
	 M1187.5,2231.9c25-43.1,325-538.9,888.9-720.8c13.9-4.2,29.2-8.3,43.1-12.5c-27.8-62.5-56.9-123.6-88.9-186.1
	c-545.8,163.9-1076.4,156.9-1123.6,155.6c0,11.1,0,22.2,0,33.3C906.9,1781.9,1013.9,2037.5,1187.5,2231.9z M930.6,1276.4
	c48.6,0,500,2.8,1011.1-133.3c-180.6-322.2-376.4-593.1-405.6-631.9C1229.2,655.6,1001.4,937.5,930.6,1276.4z M1744.4,437.5
	c30.6,40.3,229.2,311.1,408.3,640.3c388.9-145.8,552.8-366.7,573.6-394.4c-194.4-172.2-448.6-276.4-726.4-276.4
	C1912.5,406.9,1826.4,418.1,1744.4,437.5z M2847.2,809.7c-23.6,30.6-205.6,266.7-611.1,430.6c25,51.4,50,105.6,72.2,158.3
	c8.3,19.4,15.3,37.5,23.6,56.9c363.9-45.8,725,27.8,761.1,34.7C3091.7,1231.9,2998.6,995.8,2847.2,809.7z"/>
</svg>
