<?xml version="1.0" encoding="utf-8"?>
<!-- Generator: Adobe Illustrator 17.1.0, SVG Export Plug-In . SVG Version: 6.00 Build 0)  -->
<!DOCTYPE svg PUBLIC "-//W3C//DTD SVG 1.1//EN" "http://www.w3.org/Graphics/SVG/1.1/DTD/svg11.dtd">
<svg version="1.1" id="Layer_1" xmlns="http://www.w3.org/2000/svg" xmlns:xlink="http://www.w3.org/1999/xlink" x="0px" y="0px"
	 viewBox="0 0 180 180" enable-background="new 0 0 180 180" xml:space="preserve">
<path fill="#FFFFFF" d="M152.2,17H27.8C21.8,17,17,21.7,17,27.5v124.9c0,5.8,4.8,10.5,10.8,10.5h124.4c6,0,10.8-4.7,10.8-10.5V27.5
	C163,21.7,158.1,17,152.2,17z M60.3,141.4H38.6V71.7h21.7V141.4z M49.5,62.2c-7,0-12.6-5.6-12.6-12.6c0-6.9,5.6-12.6,12.6-12.6
	c6.9,0,12.6,5.6,12.6,12.6C62,56.6,56.4,62.2,49.5,62.2z M141.4,141.4h-21.7v-33.9c0-8.1-0.2-18.5-11.3-18.5c-11.3,0-13,8.8-13,17.9
	v34.5H73.9V71.7h20.8v9.5H95c2.9-5.5,10-11.3,20.5-11.3c21.9,0,26,14.4,26,33.2V141.4z"/>
</svg>
