<?xml version="1.0" encoding="utf-8"?>
<!-- Generator: Adobe Illustrator 17.1.0, SVG Export Plug-In . SVG Version: 6.00 Build 0)  -->
<!DOCTYPE svg PUBLIC "-//W3C//DTD SVG 1.1//EN" "http://www.w3.org/Graphics/SVG/1.1/DTD/svg11.dtd">
<svg version="1.1" id="Layer_1" xmlns="http://www.w3.org/2000/svg" xmlns:xlink="http://www.w3.org/1999/xlink" x="0px" y="0px"
	 viewBox="0 0 160 160" enable-background="new 0 0 160 160" xml:space="preserve">
<path fill="#FFFFFF" d="M7.9,122.3v14.4h42v-14.1h-9.6v-72l24.5,86.1h17.3l28.3-88.8v74.1H99.9v14.8h51.8v-14.6h-7.9
	c0,0-3.5-2.3-3.5-5.8c0-3.5,0-72,0-72s1.2-4.8,4-4.8s8.1,0,8.1,0V24.1H96.7l-17.9,67L59.9,23.3H7.7v17.1h7.9c0,0,3.7,1.2,3.7,4.4
	c0,3.1,0,72.6,0,72.6s-0.8,5-3.5,5S7.9,122.3,7.9,122.3z"/>
</svg>
