<?xml version="1.0" encoding="UTF-8"?>
<svg width="36px" height="36px" viewBox="0 0 36 36" version="1.1" xmlns="http://www.w3.org/2000/svg" xmlns:xlink="http://www.w3.org/1999/xlink">
    <!-- Generator: Sketch 41.2 (35397) - http://www.bohemiancoding.com/sketch -->
    <title>launch</title>
    <desc>Created with Sketch.</desc>
    <defs>
        <path d="M11.9093501,19.0902636 L17.0048135,24.3109678 C17.0048135,24.3109678 20.9536551,23.1854504 24.9315026,18.8595895 C28.9093501,14.5337285 28.9093501,7.06598729 28.9093501,7.06598729 C28.9093501,7.06598729 21.8742666,6.1595151 16.9093501,11.0659873 C11.9444336,15.9724595 11.9093501,19.0902636 11.9093501,19.0902636 Z" id="path-1"></path>
        <mask id="mask-2" maskContentUnits="userSpaceOnUse" maskUnits="objectBoundingBox" x="0" y="0" width="17" height="17.3109678" fill="white">
            <use xlink:href="#path-1"></use>
        </mask>
    </defs>
    <g id="Page-1" stroke="none" stroke-width="1" fill="none" fill-rule="evenodd">
        <g id="launch">
            <g id="Group" transform="translate(7.909350, 22.000000)" stroke="#666666" stroke-width="2" stroke-linecap="round" stroke-linejoin="round">
                <path d="M0.5,6.5 L4.5,2.5" id="Line"></path>
                <path d="M0.5,2.5 L2.5,0.5" id="Line"></path>
                <path d="M4.5,6.5 L6.5,4.5" id="Line"></path>
            </g>
            <use id="Path-2" stroke="#666666" mask="url(#mask-2)" stroke-width="4" xlink:href="#path-1"></use>
            <circle id="Oval" fill="#666666" cx="22.9093501" cy="13" r="2"></circle>
            <path d="M16.9093501,22.581324 L18.4048117,29.876032 C18.4048117,29.876032 21.2088021,28.9704607 22.3297793,26.2527151 C23.4507565,23.5349696 22.3297793,20 22.3297793,20" id="Path-3" stroke="#666666" stroke-width="2"></path>
            <path d="M7.09064987,13.4081705 L8.32988798,20.9425773 C8.32988798,20.9425773 11.1338784,20.037006 12.2548556,17.3192605 C13.3758328,14.6015149 12.2126753,11.210716 12.2126753,11.210716" id="Path-3" stroke="#666666" stroke-width="2" transform="translate(9.916506, 16.076647) scale(-1, 1) rotate(-93.000000) translate(-9.916506, -16.076647) "></path>
        </g>
    </g>
</svg>